<?xml version="1.0" standalone="no"?>
<!DOCTYPE svg PUBLIC "-//W3C//DTD SVG 20010904//EN"
 "http://www.w3.org/TR/2001/REC-SVG-20010904/DTD/svg10.dtd">
<svg version="1.0" xmlns="http://www.w3.org/2000/svg"
 width="712.000000pt" height="712.000000pt" viewBox="0 0 712.000000 712.000000"
 preserveAspectRatio="xMidYMid meet">

<g transform="translate(0.000000,712.000000) scale(0.100000,-0.100000)"
fill="#000000" stroke="none">
<path d="M3360 6976 c-170 -46 -317 -204 -350 -375 -5 -30 -10 -143 -10 -252
l0 -198 -607 -3 -608 -3 -57 -27 c-76 -35 -148 -104 -184 -175 -26 -52 -29
-68 -29 -153 0 -84 3 -101 28 -148 54 -103 151 -177 265 -201 30 -6 147 -11
267 -11 l215 0 0 -1880 0 -1880 -492 0 c-605 0 -618 -2 -734 -112 -32 -30 -62
-72 -80 -111 -25 -53 -29 -74 -28 -147 0 -65 5 -96 22 -133 32 -71 111 -149
185 -183 l62 -29 898 -3 897 -3 0 -197 c0 -145 4 -213 15 -257 60 -229 293
-386 513 -346 192 35 347 186 387 378 10 44 15 130 15 245 l0 178 968 2 967 3
59 30 c149 75 230 222 206 371 -26 158 -143 272 -311 304 -30 6 -153 10 -273
10 -170 -1 -222 2 -231 12 -7 7 -99 164 -205 348 -106 184 -332 575 -502 869
-169 293 -308 538 -307 545 0 6 44 32 98 58 135 65 258 155 381 278 207 206
340 454 402 744 28 132 30 360 5 488 -54 272 -186 518 -387 718 -212 213 -481
353 -765 398 l-105 16 0 196 c0 291 -29 390 -145 506 -121 122 -292 172 -445
130z m270 -108 c69 -31 119 -74 159 -136 51 -80 61 -141 61 -374 l0 -208 -375
0 -375 0 0 218 c0 159 4 232 14 266 34 111 131 210 243 247 82 27 199 22 273
-13z m-700 -1079 l0 -270 -562 3 -563 3 -47 23 c-232 114 -194 450 57 505 11
3 266 5 568 6 l547 1 0 -271z m1019 260 c561 -52 1002 -428 1148 -978 23 -85
26 -117 27 -281 1 -147 -3 -203 -18 -270 -89 -408 -360 -760 -721 -936 -127
-61 -225 -96 -362 -126 -91 -20 -132 -22 -545 -26 l-448 -4 0 264 0 263 272
-3 c521 -7 714 27 917 162 388 258 487 764 218 1114 -83 107 -180 180 -311
232 -141 57 -176 60 -657 60 l-439 0 0 270 0 270 403 0 c221 0 453 -5 516 -11z
m-1019 -2499 l0 -1880 -270 0 -270 0 0 1880 0 1880 270 0 270 0 0 -1880z
m1058 1864 c192 -39 357 -164 441 -334 55 -113 74 -207 68 -335 -16 -322 -228
-571 -564 -666 -73 -21 -103 -23 -490 -26 l-413 -4 0 690 0 691 440 0 c361 0
455 -3 518 -16z m462 -2391 c123 -214 303 -525 400 -693 97 -168 221 -381 274
-473 53 -93 96 -173 94 -178 -2 -5 -124 -9 -302 -10 -237 -1 -301 2 -311 13
-6 7 -58 94 -115 193 -57 99 -144 250 -193 335 -555 963 -637 1107 -637 1121
0 5 47 9 104 9 105 0 291 27 376 54 85 28 65 52 310 -371z m-889 281 c474
-823 874 -1519 909 -1577 12 -20 20 -43 17 -50 -3 -9 -160 -11 -731 -9 l-726
2 0 828 c0 456 2 831 4 833 2 2 118 3 258 3 l253 -2 16 -28z m-1833 -1996 l-3
-263 -190 -3 c-251 -4 -300 1 -366 41 -80 48 -113 108 -117 211 -3 73 -1 86
25 135 15 30 44 67 64 83 65 53 92 57 352 58 l237 0 -2 -262z m3532 -3 l0
-265 -1715 0 -1714 0 -3 261 c-2 143 -1 263 1 265 2 2 775 4 1718 4 l1713 0 0
-265z m632 249 c54 -18 109 -68 140 -127 18 -33 23 -59 23 -122 0 -90 -19
-136 -77 -192 -65 -63 -86 -67 -365 -71 l-253 -4 0 266 0 266 243 0 c195 0
253 -3 289 -16z m-2044 -821 c-3 -212 -4 -220 -30 -275 -54 -115 -159 -198
-275 -217 -169 -27 -319 52 -391 207 -26 56 -27 63 -30 280 l-3 222 366 0 366
0 -3 -217z"/>
<path d="M3412 6701 c-90 -31 -142 -100 -142 -187 0 -110 99 -204 215 -204 50
0 131 44 164 90 55 76 51 166 -12 236 -61 71 -143 94 -225 65z m150 -108 c24
-22 28 -35 28 -78 0 -38 -5 -57 -21 -74 -96 -102 -258 6 -194 129 34 65 131
77 187 23z"/>
<path d="M1914 5941 c-106 -49 -135 -173 -61 -258 56 -63 134 -80 205 -44 46
23 67 46 87 94 20 49 19 72 -6 125 -41 83 -143 122 -225 83z m133 -97 c14 -19
17 -82 5 -100 -11 -17 -48 -34 -75 -34 -36 0 -67 30 -73 72 -5 31 -2 41 21 63
23 24 32 27 68 22 23 -3 47 -14 54 -23z"/>
<path d="M1355 1451 c-108 -49 -137 -172 -62 -258 56 -64 134 -80 206 -43 130
66 128 242 -3 301 -52 23 -90 23 -141 0z m125 -91 c31 -31 27 -93 -6 -119 -57
-45 -134 -8 -134 63 0 65 93 103 140 56z"/>
<path d="M5604 1451 c-71 -32 -114 -112 -100 -186 9 -46 66 -110 113 -126 83
-27 173 12 214 93 41 81 3 179 -85 219 -52 23 -90 24 -142 0z m123 -86 c42
-29 34 -112 -13 -134 -64 -29 -116 1 -118 68 0 34 4 47 23 62 28 23 78 25 108
4z"/>
<path d="M3430 801 c-100 -32 -160 -105 -160 -196 0 -116 118 -218 234 -201
56 9 128 56 158 104 54 88 13 220 -84 270 -51 26 -110 36 -148 23z m98 -92
c42 -14 62 -49 62 -107 0 -40 -5 -53 -29 -76 -59 -56 -158 -41 -187 29 -19 46
-18 74 6 113 30 49 83 64 148 41z"/>
</g>
</svg>
